<?xml version="1.0" standalone="no"?>
<!DOCTYPE svg PUBLIC "-//W3C//DTD SVG 20010904//EN"
 "http://www.w3.org/TR/2001/REC-SVG-20010904/DTD/svg10.dtd">
<svg version="1.0" xmlns="http://www.w3.org/2000/svg"
 width="80.000000pt" height="80.000000pt" viewBox="0 0 300.000000 300.000000"
 preserveAspectRatio="xMidYMid meet">
<metadata>
Created by potrace 1.10, written by Peter Selinger 2001-2011
</metadata>
<g transform="translate(0.000000,300.000000) scale(0.100000,-0.100000)"
fill="#000000" stroke="none">
<path d="M1530 2315 c0 -42 3 -55 15 -55 10 0 15 10 15 28 l0 27 21 -32 c31
-49 47 -42 51 22 3 47 0 55 -14 55 -13 0 -18 -8 -18 -27 l0 -28 -20 33 c-31
51 -50 42 -50 -23z"/>
<path d="M1381 2310 c-14 -63 -14 -60 4 -60 8 0 15 5 15 11 0 7 14 8 41 4 l40
-7 -25 51 c-36 69 -60 70 -75 1z"/>
<path d="M1701 2294 c-10 -38 -10 -49 1 -55 17 -11 28 10 31 57 3 54 -18 53
-32 -2z"/>
<path d="M1240 2319 c-13 -6 -25 -11 -27 -12 -5 -5 23 -88 30 -88 36 1 77 16
77 28 0 11 -7 13 -30 8 -19 -4 -30 -3 -30 4 0 6 9 11 20 11 11 0 20 7 20 15 0
11 -5 12 -25 5 -14 -5 -25 -6 -25 -1 0 5 11 12 25 15 14 4 25 11 25 16 0 12
-27 12 -60 -1z"/>
<path d="M1798 2267 c-22 -51 -22 -57 -4 -57 8 0 18 10 22 23 7 20 8 20 19
-12 6 -19 17 -37 23 -39 12 -4 53 77 45 91 -8 14 -24 7 -32 -15 -9 -22 -9 -22
-16 -3 -21 63 -35 66 -57 12z"/>
<path d="M1082 2251 c-11 -7 -10 -16 7 -50 12 -22 23 -41 26 -41 17 0 75 36
71 44 -4 12 -10 12 -38 1 -12 -5 -21 2 -33 24 -18 35 -15 34 -33 22z"/>
<path d="M1957 2202 c-25 -28 -21 -59 11 -79 15 -10 30 -21 33 -26 5 -7 18 4
32 29 4 7 -5 19 -19 29 -25 16 -26 16 -19 -4 5 -16 3 -20 -9 -15 -21 8 -20 43
1 51 11 4 22 -1 31 -15 17 -25 32 -29 32 -7 0 19 -39 55 -60 55 -9 0 -24 -8
-33 -18z"/>
<path d="M962 2180 c-26 -25 -27 -38 -6 -68 27 -38 94 -22 94 23 0 33 -18 32
-31 -2 l-10 -27 -21 21 c-21 21 -16 48 6 40 18 -7 40 9 32 22 -11 17 -40 13
-64 -9z"/>
<path d="M2161 2036 c-9 -11 -10 -20 -1 -36 6 -12 9 -26 7 -33 -4 -11 -8 -5
-22 40 -4 13 -8 14 -18 4 -18 -18 15 -65 49 -69 26 -4 27 -3 20 38 -4 27 -3
39 4 35 5 -3 10 -12 10 -20 0 -8 5 -17 10 -20 19 -11 10 35 -10 55 -24 24 -34
25 -49 6z"/>
<path d="M795 2020 c-3 -6 -3 -19 0 -30 5 -15 2 -20 -13 -20 -11 0 -25 -7 -32
-15 -11 -13 -7 -15 28 -15 23 0 45 -6 52 -15 10 -12 16 -13 27 -3 13 11 12 14
-5 29 -12 9 -24 28 -28 43 -7 30 -20 41 -29 26z"/>
<path d="M1254 1986 c-47 -21 -74 -62 -74 -110 1 -57 22 -79 120 -125 47 -21
95 -49 108 -60 54 -52 14 -141 -64 -141 -19 0 -34 2 -34 5 0 21 35 82 61 106
17 16 25 29 17 29 -23 0 -84 -57 -102 -95 -15 -31 -19 -34 -37 -24 -12 6 -28
24 -37 41 -37 65 -41 67 -42 15 0 -47 1 -48 44 -67 l44 -20 0 -63 c0 -97 43
-168 124 -202 21 -8 50 -15 66 -15 20 0 35 -9 51 -31 15 -20 54 -45 116 -74
95 -44 115 -63 115 -110 0 -39 -16 -62 -51 -74 -45 -16 -67 -14 -114 9 -30 14
-50 34 -68 68 l-27 47 0 -53 0 -53 46 -21 c36 -16 62 -19 115 -16 59 3 72 8
98 32 53 51 62 114 22 160 -9 10 -59 39 -111 63 l-95 45 49 13 c55 14 76 35
76 77 0 36 -4 35 -29 -7 -22 -38 -79 -72 -105 -62 -16 7 -22 51 -10 82 9 22
57 45 96 45 42 0 93 -31 118 -72 l20 -33 0 46 c0 45 -1 46 -39 57 -55 17 -137
15 -177 -4 -38 -18 -64 -58 -64 -99 0 -29 -1 -29 -43 -11 -70 30 -127 122
-127 206 0 36 2 38 38 44 83 13 141 81 127 148 -7 30 -7 30 26 23 72 -14 100
-28 129 -63 l30 -37 0 42 c0 42 0 42 -52 58 -28 8 -73 15 -99 15 -26 0 -51 5
-55 11 -3 6 -53 33 -110 60 -109 53 -127 70 -122 121 4 44 47 73 104 71 53 -2
87 -22 114 -66 l20 -32 0 43 c0 37 -4 44 -27 54 -44 18 -144 20 -179 4z"/>
<path d="M2243 1903 l-43 -24 20 -40 c20 -38 49 -57 35 -21 -4 9 -9 26 -12 37
-4 17 -2 17 15 -5 12 -14 24 -22 28 -18 4 4 1 14 -5 22 -7 8 -9 20 -5 27 5 8
12 3 21 -15 12 -23 33 -36 33 -21 0 8 -40 85 -43 84 -1 -1 -21 -12 -44 -26z"/>
<path d="M690 1848 c-24 -50 -25 -58 -5 -58 8 0 15 7 15 15 0 19 4 19 41 0 28
-15 49 -13 49 4 0 4 -15 15 -34 24 -27 12 -33 20 -29 36 10 37 -16 22 -37 -21z"/>
<path d="M2305 1765 c-22 -6 -39 -15 -37 -18 1 -4 2 -12 2 -17 0 -6 12 -8 28
-4 l27 5 -23 -20 c-17 -15 -21 -25 -14 -36 8 -15 10 -15 21 -1 9 10 22 14 37
10 30 -8 38 11 27 57 -10 39 -16 41 -68 24z"/>
<path d="M647 1724 c-14 -14 -7 -23 26 -32 17 -6 39 -13 48 -16 11 -5 18 -1
21 12 4 15 -1 21 -21 26 -14 3 -35 8 -46 11 -11 4 -24 3 -28 -1z"/>
<path d="M615 1622 c-13 -14 -2 -31 23 -34 l27 -4 -27 -13 c-23 -12 -44 -39
-36 -46 2 -1 27 -5 56 -9 42 -5 52 -4 52 8 0 9 -11 16 -27 18 l-28 3 33 18
c28 16 44 46 25 47 -5 1 -27 5 -50 9 -23 5 -45 6 -48 3z"/>
<path d="M2358 1601 c-64 -35 -63 -56 2 -70 66 -14 70 -14 64 4 -3 8 -22 18
-42 21 l-37 7 33 14 c21 8 32 20 32 33 0 11 -1 19 -2 19 -2 -1 -24 -13 -50
-28z"/>
<path d="M682 1430 c3 -20 0 -30 -9 -30 -7 0 -13 11 -13 25 0 34 -18 32 -23
-2 l-4 -28 -2 28 c0 17 -7 27 -16 27 -11 0 -15 -12 -15 -46 l0 -46 31 6 c17 3
42 6 55 6 22 0 24 4 24 45 0 35 -4 45 -16 45 -12 0 -15 -7 -12 -30z"/>
<path d="M2320 1435 c0 -10 11 -16 35 -17 19 -1 43 -2 52 -2 10 -1 19 7 21 17
3 14 -5 17 -52 17 -43 0 -56 -3 -56 -15z"/>
<path d="M2322 1338 c-19 -25 -22 -54 -7 -74 12 -16 16 -17 24 -4 7 9 6 19 -1
28 -16 18 4 36 31 27 25 -7 27 -23 6 -31 -18 -7 -20 -34 -2 -34 21 0 37 22 37
50 0 14 -5 31 -12 38 -16 16 -63 15 -76 0z"/>
<path d="M690 1295 c-9 -11 -16 -12 -26 -4 -20 16 -34 2 -34 -34 0 -51 11 -60
61 -50 28 5 44 14 44 23 0 10 -8 14 -22 13 -26 -3 -31 14 -8 23 16 6 21 44 6
44 -5 0 -14 -7 -21 -15z"/>
<path d="M2272 1183 c-5 -15 -13 -36 -17 -45 -5 -13 -2 -18 8 -18 8 0 18 11
21 25 4 14 11 25 17 25 7 0 8 -7 4 -17 -11 -29 -11 -35 1 -39 5 -3 15 8 21 23
11 27 12 26 6 -9 -6 -45 10 -51 25 -10 5 15 13 34 16 43 5 12 -3 19 -31 28
-21 7 -43 14 -49 17 -7 3 -16 -8 -22 -23z"/>
<path d="M736 1162 c-2 -4 -1 -14 5 -22 5 -8 9 -21 9 -27 0 -21 -17 -15 -23 7
-3 11 -10 20 -16 20 -14 0 -14 -17 -1 -25 13 -8 13 -25 0 -25 -5 0 -12 11 -16
24 -3 15 -11 23 -19 20 -10 -4 -10 -13 3 -45 8 -21 19 -39 23 -39 5 0 25 8 46
17 21 10 39 18 40 18 2 1 -5 20 -14 43 -16 41 -26 51 -37 34z"/>
<path d="M2218 1053 c-24 -28 -28 -40 -22 -57 8 -20 38 -21 54 -1 7 8 17 15
23 15 6 0 0 -11 -13 -25 -19 -20 -20 -25 -7 -25 23 0 47 28 47 55 0 35 -18 40
-51 16 -16 -12 -29 -17 -29 -12 0 6 9 15 20 21 11 6 20 15 20 20 0 16 -26 11
-42 -7z"/>
<path d="M791 1021 c-9 -6 -12 -19 -8 -40 4 -18 2 -31 -3 -31 -6 0 -10 9 -10
20 0 11 -4 20 -10 20 -17 0 -11 -36 8 -53 10 -10 27 -17 37 -17 15 0 17 6 11
41 -4 26 -3 38 4 34 5 -3 10 -15 10 -25 0 -25 19 -36 26 -15 7 16 -23 66 -42
72 -5 1 -15 -1 -23 -6z"/>
<path d="M1856 908 c9 -32 34 -58 55 -58 10 0 23 -9 29 -20 14 -26 1 -26 -44
1 l-36 21 0 -20 c0 -12 4 -24 10 -27 6 -4 7 1 3 11 -5 14 -3 16 11 11 10 -4
20 -7 22 -7 2 0 4 -5 4 -11 0 -5 -4 -8 -9 -4 -5 3 -12 1 -16 -5 -3 -5 -16 -10
-29 -10 -22 0 -46 -17 -46 -32 0 -16 58 -7 75 12 26 29 82 37 103 15 10 -10
12 -15 5 -11 -6 3 -13 0 -16 -6 -2 -7 -8 -9 -13 -5 -5 4 -2 12 6 17 10 6 11
10 3 10 -7 0 -17 -9 -23 -20 -9 -17 -8 -20 14 -20 14 0 31 9 39 20 12 17 20
19 53 12 35 -7 40 -12 44 -42 5 -34 6 -35 18 -12 7 12 12 31 10 41 -2 10 13
32 35 53 20 19 37 41 37 47 0 6 -13 -4 -30 -22 -45 -52 -78 -62 -150 -47 -56
12 -61 15 -81 57 -12 24 -33 50 -50 58 -37 20 -42 19 -33 -7z m53 -22 c8 -10
9 -16 1 -21 -14 -9 -36 10 -43 35 -4 16 -2 18 12 10 10 -5 23 -16 30 -24z"/>
<path d="M1400 864 c0 -24 19 -54 34 -54 15 0 26 -21 26 -48 0 -11 -11 -4 -34
21 -46 51 -76 50 -40 -1 8 -12 23 -22 33 -22 10 0 26 -10 37 -22 21 -24 22
-24 -63 12 -36 15 -61 20 -80 15 l-28 -7 25 -14 c16 -9 39 -12 65 -8 l40 6
-19 -21 c-25 -28 -15 -37 22 -19 34 17 66 9 82 -22 6 -11 29 -34 52 -50 l41
-30 -46 0 c-42 0 -46 2 -49 27 -2 19 -12 32 -31 41 -35 17 -40 12 -28 -20 8
-23 41 -36 41 -16 0 4 -7 8 -15 8 -8 0 -15 5 -15 10 0 15 16 12 30 -6 11 -12
10 -18 -5 -32 -10 -9 -15 -12 -12 -7 3 6 -10 10 -31 10 -30 0 -38 4 -40 21 -2
12 -16 34 -33 49 l-29 29 0 -30 c0 -17 6 -36 13 -43 10 -11 7 -12 -13 -6 -54
16 -67 24 -83 49 -16 24 -16 27 3 46 20 20 28 60 11 60 -6 0 -17 -10 -25 -22
-16 -23 -18 -21 -30 33 -3 15 -17 34 -31 43 -25 16 -25 16 -25 -13 0 -20 9
-36 27 -51 15 -12 35 -41 44 -65 16 -43 16 -44 -5 -35 -47 19 -95 48 -89 54 8
7 -17 56 -29 56 -4 0 -8 -9 -8 -20 0 -22 -7 -25 -29 -11 -7 5 -11 13 -7 19 7
12 -13 62 -26 62 -4 0 -8 -12 -7 -27 0 -24 2 -25 8 -9 7 17 8 17 14 3 4 -11
-4 -21 -30 -34 -21 -10 -39 -24 -41 -30 -4 -15 34 -18 43 -3 3 6 -1 7 -9 4 -9
-3 -16 -1 -16 5 0 18 46 12 86 -11 40 -23 29 -39 -12 -17 -17 9 -28 9 -35 2
-7 -7 -5 -12 6 -17 9 -3 13 -2 10 4 -3 6 -1 10 5 10 26 0 1 -25 -28 -28 -19
-2 -36 -11 -42 -23 -10 -17 -7 -19 20 -19 17 0 33 6 36 14 3 8 25 21 49 30 40
16 47 16 72 2 18 -10 22 -15 12 -16 -9 0 -22 -6 -28 -14 -9 -11 -6 -15 14 -18
14 -3 33 0 42 7 16 12 53 9 53 -4 0 -3 -18 -16 -40 -28 -33 -18 -45 -19 -68
-11 -16 6 -37 8 -47 4 -16 -6 -13 -9 15 -25 41 -22 47 -36 21 -50 -14 -8 -22
-8 -27 1 -4 6 -3 8 2 5 12 -7 41 9 32 18 -3 4 -16 2 -28 -5 -11 -6 -30 -8 -41
-5 -20 7 -49 -9 -49 -26 0 -12 47 -11 55 1 10 15 25 12 25 -6 0 -13 5 -12 30
6 17 12 30 27 30 35 0 14 85 75 104 75 24 0 56 -13 56 -22 0 -5 -5 -6 -11 -3
-11 7 -49 -22 -49 -37 0 -6 14 -7 33 -3 43 9 56 23 16 17 -21 -3 -30 -1 -25 6
6 10 17 12 80 12 37 1 40 -3 26 -30 -21 -39 -5 -46 29 -12 18 18 37 29 43 26
5 -4 41 -6 78 -6 l69 1 -6 -35 c-7 -41 7 -44 36 -8 21 26 19 54 -5 54 -7 0
-24 5 -38 11 -21 10 -24 16 -19 45 5 29 3 33 -11 28 -9 -3 -16 -10 -16 -16 0
-5 5 -6 10 -3 6 3 10 1 10 -4 0 -14 -6 -14 -31 0 -16 8 -19 17 -14 39 4 16 2
37 -3 46 -9 16 -11 15 -21 -5 -17 -32 -28 -18 -36 46 -7 58 -26 93 -52 93 -7
0 -13 -7 -13 -16z m-207 -71 c-5 -14 -8 -13 -20 3 -7 10 -13 24 -13 32 0 12 4
12 19 -2 11 -10 17 -25 14 -33z m187 -142 c0 -4 -3 -11 -7 -14 -9 -9 -33 12
-33 30 0 11 4 11 20 3 11 -6 20 -14 20 -19z"/>
<path d="M915 816 c14 -19 33 -37 42 -40 9 -4 1 8 -16 26 -18 18 -27 34 -22
36 14 5 52 -18 46 -27 -7 -12 21 -34 36 -29 22 7 -51 68 -82 68 l-30 0 26 -34z"/>
<path d="M1600 824 c0 -33 17 -64 35 -64 8 0 15 -4 15 -10 0 -5 -13 -10 -29
-10 -17 0 -32 -4 -36 -9 -9 -15 33 -33 63 -26 20 4 30 0 40 -15 11 -18 10 -20
-9 -20 -11 0 -17 4 -14 10 3 6 -1 7 -9 4 -34 -13 -15 -27 27 -21 45 6 145 -16
117 -26 -65 -24 -91 -26 -111 -6 -10 10 -28 19 -39 19 -20 0 -20 -1 -3 -25 19
-27 34 -28 121 -9 28 6 31 4 26 -10 -4 -10 -13 -15 -22 -11 -15 6 -62 -19 -62
-34 0 -4 12 -6 28 -4 l27 4 -22 -19 c-13 -12 -31 -18 -45 -15 -16 3 -32 -5
-52 -26 l-30 -31 35 0 c19 0 41 6 48 13 11 10 12 6 6 -20 -8 -40 1 -41 38 -7
20 18 27 33 23 47 -8 31 49 136 74 137 4 0 4 -16 2 -35 -2 -19 0 -35 5 -35 11
0 33 44 33 65 0 12 47 45 65 45 3 0 5 -11 5 -25 0 -30 11 -32 34 -6 11 12 15
27 12 39 -6 18 -2 22 57 50 13 7 -34 -92 -55 -115 -11 -12 -30 -23 -42 -25
-20 -3 -46 -51 -33 -64 3 -3 20 4 36 16 l31 21 0 -26 c0 -32 16 -29 38 8 14
22 14 31 5 47 -7 10 -10 26 -7 34 5 12 11 9 30 -12 l23 -27 1 29 c0 16 -8 38
-17 49 -17 18 -17 21 4 59 12 21 19 38 15 36 -4 -2 -38 -20 -75 -42 -57 -32
-72 -37 -90 -28 -23 12 -42 15 -66 13 -11 -1 -8 -8 8 -25 23 -24 23 -24 2 -31
-31 -9 -91 5 -104 26 -8 13 -15 15 -24 7 -10 -8 -21 -2 -44 23 -26 27 -30 39
-26 67 5 24 1 38 -14 53 -27 27 -49 24 -49 -7z m50 -14 c7 -13 5 -21 -5 -30
-11 -9 -16 -7 -24 9 -6 11 -11 27 -11 35 0 20 27 10 40 -14z m264 -119 c10
-16 -21 -20 -41 -6 -17 13 -16 14 9 15 15 0 29 -4 32 -9z m91 -98 c-3 -25 -2
-26 11 -8 17 22 19 3 3 -27 -10 -19 -11 -19 -25 7 -11 21 -11 31 -3 41 16 19
18 18 14 -13z m-51 -37 c-22 -17 -32 -3 -13 20 8 10 15 12 23 4 7 -7 4 -14
-10 -24z m-202 -28 c-9 -9 -9 -15 0 -25 9 -11 7 -18 -8 -31 -10 -10 -18 -16
-17 -13 1 2 -2 13 -8 23 -8 15 -14 17 -22 9 -6 -6 -22 -11 -36 -11 l-25 0 22
22 c18 18 26 20 40 12 13 -8 21 -7 36 8 21 19 38 26 18 6z"/>
<path d="M1725 738 c-4 -15 -5 -33 -2 -40 3 -7 6 0 6 16 1 24 3 26 15 16 8 -6
17 -21 19 -33 l4 -22 2 21 c0 12 -8 32 -18 45 l-19 24 -7 -27z"/>
<path d="M1458 545 c-26 -19 -54 -32 -61 -29 -8 3 -17 -2 -20 -10 -4 -9 -13
-16 -20 -16 -14 0 -47 -31 -47 -44 0 -17 54 7 84 36 31 31 31 32 34 8 2 -14
-3 -27 -12 -32 -17 -10 -22 -53 -7 -63 14 -8 40 33 34 54 -2 9 4 24 14 32 16
13 17 12 5 -3 -11 -14 -11 -16 7 -11 28 7 26 21 -4 29 -28 7 -31 16 -12 33 11
8 18 6 32 -9 10 -11 22 -20 27 -20 12 0 10 38 -2 45 -8 5 -7 11 1 21 20 24 -4
15 -53 -21z"/>
</g>
</svg>
